<svg xmlns="http://www.w3.org/2000/svg" viewBox="0 0 512 512">
  <!-- Background -->
  <rect width="512" height="512" rx="100" fill="#7c3aed"/>

  <!-- PARENT (left, taller) -->
  <!-- Head -->
  <circle cx="185" cy="148" r="44" fill="white"/>
  <!-- Smile -->
  <path d="M168 155 Q185 170 202 155" stroke="#7c3aed" stroke-width="6" fill="none" stroke-linecap="round"/>
  <!-- Eyes -->
  <circle cx="174" cy="143" r="5" fill="#7c3aed"/>
  <circle cx="196" cy="143" r="5" fill="#7c3aed"/>
  <!-- Body -->
  <path d="M185 192 L185 320" stroke="white" stroke-width="36" stroke-linecap="round"/>
  <!-- Legs -->
  <path d="M185 320 L158 400" stroke="white" stroke-width="24" stroke-linecap="round"/>
  <path d="M185 320 L212 400" stroke="white" stroke-width="24" stroke-linecap="round"/>

  <!-- PARENT ARM around child -->
  <path d="M185 230 Q260 195 305 220" stroke="white" stroke-width="22" fill="none" stroke-linecap="round"/>

  <!-- CHILD (right, shorter) -->
  <!-- Head -->
  <circle cx="310" cy="210" r="34" fill="white"/>
  <!-- Smile -->
  <path d="M296 218 Q310 231 324 218" stroke="#7c3aed" stroke-width="5" fill="none" stroke-linecap="round"/>
  <!-- Eyes -->
  <circle cx="300" cy="205" r="4" fill="#7c3aed"/>
  <circle cx="320" cy="205" r="4" fill="#7c3aed"/>
  <!-- Body -->
  <path d="M310 244 L310 340" stroke="white" stroke-width="28" stroke-linecap="round"/>
  <!-- Legs -->
  <path d="M310 340 L288 400" stroke="white" stroke-width="20" stroke-linecap="round"/>
  <path d="M310 340 L332 400" stroke="white" stroke-width="20" stroke-linecap="round"/>

  <!-- Child arm up toward parent -->
  <path d="M310 270 Q275 245 240 255" stroke="white" stroke-width="18" fill="none" stroke-linecap="round"/>
</svg>
