<svg xmlns="http://www.w3.org/2000/svg" viewBox="0 0 512 512">
  <!-- Background -->
  <rect width="512" height="512" rx="100" fill="#7c3aed"/>

  <!-- Petals -->
  <ellipse cx="256" cy="145" rx="38" ry="75" fill="white"/>
  <ellipse cx="256" cy="145" rx="38" ry="75" fill="white" transform="rotate(45 256 256)"/>
  <ellipse cx="256" cy="145" rx="38" ry="75" fill="white" transform="rotate(90 256 256)"/>
  <ellipse cx="256" cy="145" rx="38" ry="75" fill="white" transform="rotate(135 256 256)"/>
  <ellipse cx="256" cy="145" rx="38" ry="75" fill="white" transform="rotate(180 256 256)"/>
  <ellipse cx="256" cy="145" rx="38" ry="75" fill="white" transform="rotate(225 256 256)"/>
  <ellipse cx="256" cy="145" rx="38" ry="75" fill="white" transform="rotate(270 256 256)"/>
  <ellipse cx="256" cy="145" rx="38" ry="75" fill="white" transform="rotate(315 256 256)"/>

  <!-- Centre -->
  <circle cx="256" cy="256" r="68" fill="#f9c74f"/>
  <circle cx="256" cy="256" r="46" fill="#f8961e"/>
</svg>
